<svg xmlns="http://www.w3.org/2000/svg" viewBox="0 0 27.15 9.88"><title>4SEE_LOGO2</title><g id="레이어_2" data-name="레이어 2"><g id="레이어_1-2" data-name="레이어 1"><path d="M5.81,7.2h1V8.44h-1V9.72H4.44V8.44H0L5.81,0Zm-1.37,0v-3l-2.08,3Z"/><path d="M13.49,2l-1.1.66a2,2,0,0,0-.6-.71A1.39,1.39,0,0,0,11,1.79a1.36,1.36,0,0,0-.94.32,1,1,0,0,0-.38.8c0,.44.33.79,1,1.06l.9.37a3.89,3.89,0,0,1,1.61,1.09A2.45,2.45,0,0,1,13.73,7a2.77,2.77,0,0,1-.83,2.06,2.86,2.86,0,0,1-2.08.82,2.8,2.8,0,0,1-2-.69,3.22,3.22,0,0,1-.94-2l1.38-.3A2.26,2.26,0,0,0,9.64,8a1.42,1.42,0,0,0,1.23.59,1.46,1.46,0,0,0,1.06-.43,1.49,1.49,0,0,0,.42-1.08,1.53,1.53,0,0,0-.07-.49,1.34,1.34,0,0,0-.23-.4,1.73,1.73,0,0,0-.4-.35,4,4,0,0,0-.59-.31l-.87-.36a2.51,2.51,0,0,1-1.86-2.3,2.17,2.17,0,0,1,.78-1.7A2.83,2.83,0,0,1,11.05.5,2.71,2.71,0,0,1,13.49,2Z"/><path d="M20.37,2H16.74V4.13h3.52V5.41H16.74v3h3.63V9.72h-5v-9h5Z"/><path d="M27.15,2H23.53V4.13h3.52V5.41H23.53v3h3.62V9.72h-5v-9h5Z"/></g></g></svg>