<svg xmlns="http://www.w3.org/2000/svg" viewBox="0 0 27.15 9.88"><defs><style>.cls-1{fill:#fff;}</style></defs><title>4SEE_LOGO_WHITE</title><g id="레이어_2" data-name="레이어 2"><g id="레이어_1-2" data-name="레이어 1"><g id="레이어_1-2-2" data-name="레이어 1-2"><path class="cls-1" d="M5.81,7.2h1V8.44h-1V9.72H4.44V8.44H0L5.81,0Zm-1.37,0v-3l-2.08,3Z"/><path class="cls-1" d="M13.49,2l-1.1.66a2.05,2.05,0,0,0-.6-.71A1.36,1.36,0,0,0,11,1.79a1.35,1.35,0,0,0-.94.32,1,1,0,0,0-.38.8c0,.44.33.79,1,1.06l.9.37a3.94,3.94,0,0,1,1.61,1.09A2.42,2.42,0,0,1,13.73,7a2.79,2.79,0,0,1-.83,2.06,2.87,2.87,0,0,1-2.08.82,2.81,2.81,0,0,1-2-.69,3.21,3.21,0,0,1-.94-2l1.38-.3A2.3,2.3,0,0,0,9.64,8a1.42,1.42,0,0,0,1.23.59,1.45,1.45,0,0,0,1.06-.43,1.5,1.5,0,0,0,.42-1.08,1.61,1.61,0,0,0-.07-.49,1.23,1.23,0,0,0-.23-.4,1.68,1.68,0,0,0-.4-.35,4.75,4.75,0,0,0-.59-.31l-.87-.36a2.51,2.51,0,0,1-1.86-2.3,2.17,2.17,0,0,1,.78-1.7A2.8,2.8,0,0,1,11.05.5,2.71,2.71,0,0,1,13.49,2Z"/><path class="cls-1" d="M20.37,2H16.74V4.13h3.52V5.41H16.74v3h3.63V9.72h-5v-9h5Z"/><path class="cls-1" d="M27.15,2H23.53V4.13h3.52V5.41H23.53v3h3.62V9.72h-5v-9h5Z"/></g></g></g></svg>