<svg xmlns="http://www.w3.org/2000/svg" viewBox="0 0 138.22 138.25"><defs><style>.cls-1{fill:#1a171b;}</style></defs><title>advertising</title><g id="레이어_2" data-name="레이어 2"><g id="Layer_1" data-name="Layer 1"><path class="cls-1" d="M69.11,50.61A18.51,18.51,0,1,0,87.62,69.12,18.53,18.53,0,0,0,69.11,50.61Zm0,34A15.51,15.51,0,1,1,84.62,69.12,15.53,15.53,0,0,1,69.11,84.63Z"/><path class="cls-1" d="M17.17,69.76c.34.72,8.54,17.76,26.61,27.35C51.47,110.24,62,120.91,66.25,125H64l-1.5,1.5v3.63H31.54a3.75,3.75,0,1,0,0,3H62.47v3.64l1.5,1.5H74.25l1.5-1.5v-3.64h30.93a3.74,3.74,0,1,0,0-3H75.75v-3.63l-1.5-1.5H72c4.22-4.07,14.67-14.78,22.37-27.84,18.09-9.58,26.38-26.65,26.73-27.38V68.47c-.16-.33-15.85-32.39-50-33.55-.63,0-1.26-.06-1.9-.06s-1.27,0-1.89.06c-34.34,1.15-49.89,33.23-50,33.56ZM27.9,131.85a.3.3,0,0,1-.11-.24.32.32,0,0,1,.11-.24Zm82.21.09v-.65a.32.32,0,0,1,.33.32A.33.33,0,0,1,110.11,131.94Zm-37.36,3.31H65.47V128h7.28Zm-3.64-11.71c-5.46-5.15-31.25-30.75-31.25-54.42a31.29,31.29,0,0,1,29.6-31.21c.55,0,1.09,0,1.65,0s1.11,0,1.66,0a31.29,31.29,0,0,1,29.6,31.21C100.37,92.44,74.55,118.34,69.11,123.54ZM118,69.12A66.11,66.11,0,0,1,97.14,92c3.68-7.33,6.23-15.18,6.23-22.88A34.18,34.18,0,0,0,91.11,42.89C107.56,50.86,116.26,65.83,118,69.12ZM47.18,42.82a34.22,34.22,0,0,0-12.32,26.3c0,7.75,2.5,15.57,6.13,22.86A65.48,65.48,0,0,1,20.21,69.12C22,65.84,30.62,50.78,47.18,42.82Z"/><rect class="cls-1" x="67.61" width="3" height="20.86"/><rect class="cls-1" y="67.61" width="15.07" height="3"/><rect class="cls-1" x="123.15" y="67.61" width="15.07" height="3"/><rect class="cls-1" x="101.56" y="25.55" width="19.24" height="3" transform="translate(13.44 86.54) rotate(-45)"/><rect class="cls-1" x="25.55" y="17.42" width="3" height="19.26" transform="translate(-11.2 27.05) rotate(-45)"/><rect class="cls-1" x="45.8" y="4.2" width="3" height="20.86" transform="translate(-2.05 18.63) rotate(-21.82)"/><rect class="cls-1" x="118.74" y="44.72" width="15.07" height="3" transform="translate(-8.13 50.26) rotate(-21.82)"/><rect class="cls-1" x="82.91" y="12.92" width="19.24" height="3" transform="translate(42.86 93.81) rotate(-66.82)"/><rect class="cls-1" x="12.93" y="36.07" width="3" height="19.26" transform="translate(-33.26 40.98) rotate(-66.82)"/></g></g></svg>