<svg xmlns="http://www.w3.org/2000/svg" viewBox="0 0 125.75 123.4"><defs><style>.cls-1{fill:#1a171b;}</style></defs><title>branding</title><g id="레이어_2" data-name="레이어 2"><g id="Layer_1" data-name="Layer 1"><path class="cls-1" d="M32.69,68.35v53.57a1.51,1.51,0,0,0,.07.37s0,0,0,0l0,0a1.08,1.08,0,0,0,.19.35.18.18,0,0,0,.05.07,1.54,1.54,0,0,0,.26.25l0,0a1.22,1.22,0,0,0,.36.18l.08,0a1.47,1.47,0,0,0,.42.06h88.45a1.5,1.5,0,0,0,1.5-1.5s0-.1,0-.15V68.35h0a1.41,1.41,0,0,0-.07-.41.09.09,0,0,0,0-.05l0,0a1.3,1.3,0,0,0-.19-.37l0,0a1.28,1.28,0,0,0-.26-.26l0,0a1.22,1.22,0,0,0-.36-.18l-.08,0a1.54,1.54,0,0,0-.42-.07H34.19a1.42,1.42,0,0,0-.42.07l-.09,0a1.22,1.22,0,0,0-.36.18l0,0a1.33,1.33,0,0,0-.27.26l0,0a1.62,1.62,0,0,0-.19.37l0,0a.09.09,0,0,1,0,.05,1.84,1.84,0,0,0-.06.41Zm3,3,30.74,22.8L35.69,118.72Zm2.77,49L68.92,96l8.59,6.36a1.47,1.47,0,0,0,.89.3,1.5,1.5,0,0,0,.9-.3L87.88,96l30.46,24.36Zm82.66-1.62L90.37,94.13l30.75-22.8Zm-3-48.87L87,92.88h0L78.4,99.27l-8.62-6.39h0l-31.05-23Z"/><path class="cls-1" d="M99.88,36.86a9.15,9.15,0,1,0-9.14-9.14A9.15,9.15,0,0,0,99.88,36.86Zm0-15.29a6.15,6.15,0,1,1-6.14,6.15A6.16,6.16,0,0,1,99.88,21.57Z"/><path class="cls-1" d="M99.88,31.13a3.41,3.41,0,1,0-3.41-3.41A3.41,3.41,0,0,0,99.88,31.13Zm0-3.82a.41.41,0,0,1,.41.41.41.41,0,0,1-.41.41.42.42,0,0,1-.41-.41A.41.41,0,0,1,99.88,27.31Z"/><path class="cls-1" d="M34.19,54.54H87.7A1.5,1.5,0,0,0,89.2,53V51.27a25.87,25.87,0,1,0,0-47.11V2.39A1.5,1.5,0,0,0,87.7.89H34.19a1.5,1.5,0,0,0-1.5,1.5V53A1.5,1.5,0,0,0,34.19,54.54ZM99.88,4.85A22.87,22.87,0,1,1,89.2,47.93V7.5A22.92,22.92,0,0,1,99.88,4.85ZM86.2,51.54H42.26V3.89H86.2ZM35.69,3.89h3.57V51.54H35.69Z"/><path class="cls-1" d="M57.06,30.73l-2.22,6.85a1.5,1.5,0,0,0,.54,1.67,1.52,1.52,0,0,0,1.77,0L63,35l5.83,4.23a1.5,1.5,0,0,0,2.31-1.67l-2.23-6.85,5.83-4.24a1.5,1.5,0,0,0-.88-2.71h-7.2L64.4,16.93a1.5,1.5,0,0,0-2.85,0l-2.23,6.85h-7.2a1.5,1.5,0,0,0-.88,2.71Zm3.35-3.95a1.5,1.5,0,0,0,1.43-1L63,22.25l1.14,3.49a1.5,1.5,0,0,0,1.43,1h3.67l-3,2.16a1.5,1.5,0,0,0-.55,1.68l1.14,3.49-3-2.16a1.52,1.52,0,0,0-1.77,0l-3,2.16,1.13-3.49a1.51,1.51,0,0,0-.54-1.68l-3-2.16Z"/><path class="cls-1" d="M.06,100.44a2,2,0,0,0,.08.22,0,0,0,0,1,0,0l10.74,21.87a1.5,1.5,0,0,0,2.69,0l10.74-21.87a0,0,0,0,1,0,0c0-.07.05-.14.08-.22s0,0,0-.08a1.24,1.24,0,0,0,0-.33V8.76A8.77,8.77,0,0,0,15.7,0H8.76A8.77,8.77,0,0,0,0,8.76V100a1.24,1.24,0,0,0,0,.33A.31.31,0,0,0,.06,100.44Zm3.85,1.09H20.56L13.8,115.3H10.67Zm6.28-3V25.73h4.09v72.8Zm-3,0H3V25.73H7.19Zm10.09,0V25.73h4.19v72.8Zm4.19-75.8H3V17.17H21.47ZM12.14,118.3h.19l-.1.2ZM8.76,3H15.7a5.78,5.78,0,0,1,5.77,5.76v5.41H3V8.76A5.77,5.77,0,0,1,8.76,3Z"/></g></g></svg>