<svg xmlns="http://www.w3.org/2000/svg" viewBox="0 0 153.46 131.4"><defs><style>.cls-1{fill:#1a171b;}</style></defs><title>ux</title><g id="레이어_2" data-name="레이어 2"><g id="Layer_1" data-name="Layer 1"><path class="cls-1" d="M145,58.32l-.88-.66v.16l-9.33-5.27H113.91V11a11,11,0,0,0-11-11H45.16a11,11,0,0,0-11,11V52.53H6.06A6,6,0,0,0,0,58.59v9.06a6,6,0,0,0,6.06,6h28.1v47.24A10.47,10.47,0,0,0,44.63,131.4h58.82a10.47,10.47,0,0,0,10.46-10.46V73.69h20.88l9.53-5.4v.07l.2-.18,9-5.07Zm-79.21,4.8a10.62,10.62,0,0,0,10.6,10.6l1.45,0h9.72a15.38,15.38,0,1,1,0-21.17H76.35A10.62,10.62,0,0,0,65.75,63.12Zm3,0a7.12,7.12,0,0,1,.16-1.54h62.33a5.36,5.36,0,0,0,0,3.07H68.91A7.79,7.79,0,0,1,68.75,63.12Zm62.6-4.54H70.26a7.61,7.61,0,0,1,6-3.07l.23,0,54.66,0a5.59,5.59,0,0,0-.14,1.23A5.82,5.82,0,0,0,131.35,58.58ZM45.16,3h57.75a8,8,0,0,1,8,8v7.16H37.16V11A8,8,0,0,1,45.16,3ZM16.68,70.7H12.54V55.53h4.14Zm3-9.11H34.16v3.06H19.68Zm14.48-3H19.68V55.53H34.16ZM6.06,70.7h0a3,3,0,0,1-2.16-.89A3,3,0,0,1,3,67.65V58.59a3.06,3.06,0,0,1,3.06-3.06H9.54V70.7Zm13.62,0v-3H34.16v3Zm83.77,57.7H44.63a7.48,7.48,0,0,1-7.47-7.46V110.11h73.75v10.83A7.47,7.47,0,0,1,103.45,128.4Zm7.46-21.29H37.16V21.16h73.75V52.53H91.36a18.38,18.38,0,1,0,0,21.17h19.53ZM75.74,70.69a7.58,7.58,0,0,1-5.48-3h61a5.64,5.64,0,0,0-.23,1.58,6,6,0,0,0,.19,1.46Zm58.59-.19a3.14,3.14,0,0,1-.29-1.27,2.77,2.77,0,0,1,.64-1.74,2.17,2.17,0,0,0,0-2.74,2.7,2.7,0,0,1,0-3.49,2.17,2.17,0,0,0,0-2.74,2.77,2.77,0,0,1-.64-1.74,2.49,2.49,0,0,1,.24-1.05l9.8,5.53V65Z"/><rect class="cls-1" x="59.51" y="9.91" width="29.05" height="3"/><path class="cls-1" d="M74,111.5a7.87,7.87,0,1,0,7.86,7.87A7.88,7.88,0,0,0,74,111.5Zm0,12.74a4.87,4.87,0,1,1,4.86-4.87A4.88,4.88,0,0,1,74,124.24Z"/><rect class="cls-1" x="128.23" y="77.92" width="3" height="24.68" transform="translate(-25.82 118.17) rotate(-45)"/><rect class="cls-1" x="117.39" y="34.12" width="24.68" height="3" transform="translate(12.81 102.16) rotate(-45)"/><rect class="cls-1" x="5.14" y="88.76" width="24.68" height="3" transform="translate(-58.7 38.8) rotate(-45)"/><rect class="cls-1" x="15.98" y="23.28" width="3" height="24.68" transform="translate(-20.06 22.79) rotate(-45)"/><path class="cls-1" d="M54.2,56.31l-2.87-.86a26.24,26.24,0,0,0-1.09,7.48,25.9,25.9,0,0,0,1.32,8.21l2.85-.94a23.23,23.23,0,0,1-.21-13.89Z"/><path class="cls-1" d="M76.73,93.21a31.52,31.52,0,0,1-4-.26l-.39,3a32.3,32.3,0,0,0,4.4.29,32.94,32.94,0,0,0,12.91-2.6l-1.17-2.77A30,30,0,0,1,76.73,93.21Z"/><path class="cls-1" d="M105.37,39.18l2.31-1.92A40.55,40.55,0,0,0,92.52,26l-1.17,2.76A37.39,37.39,0,0,1,105.37,39.18Z"/><path class="cls-1" d="M51.3,39a35,35,0,0,0-6,8.86L48,49.12A32,32,0,0,1,53.49,41Z"/></g></g></svg>